<svg xmlns="http://www.w3.org/2000/svg" width="2000" height="1500" viewBox="0 0 2000 1500" version="1.1"><path d="M 343 750 L 343 1241 833.500 1241 L 1324 1241 1324 1145 L 1324 1049 1316 1049 L 1308 1049 1308 1137 L 1308 1225 833.500 1225 L 359 1225 359 750 L 359 275 833.500 275 L 1308 275 1308 363 L 1308 451 1316 451 L 1324 451 1324 355 L 1324 259 833.500 259 L 343 259 343 750 M 1025.434 648.592 C 1025.055 651.118, 1024.950 659.218, 1025.200 666.592 L 1025.655 680 1021.399 680 L 1017.144 680 1016.433 685.687 C 1016.043 688.814, 1015.968 696.689, 1016.267 703.187 L 1016.811 715 1010.467 715 L 1004.123 715 1003.444 719.526 C 1003.071 722.015, 1002.947 729.890, 1003.169 737.026 L 1003.574 750 999.359 750 L 995.144 750 994.558 755.250 C 994.236 758.138, 994.091 774.113, 994.236 790.750 L 994.500 821 988.358 821 C 982.599 821, 982.177 821.160, 981.573 823.566 C 981.218 824.978, 981.012 831.728, 981.113 838.566 C 981.351 854.593, 981.350 857.072, 981.105 871.727 C 980.993 878.452, 981.198 885.539, 981.562 887.477 L 982.223 891 1000.039 891 L 1017.856 891 1018.438 885.750 C 1018.757 882.862, 1018.902 867.112, 1018.760 850.750 L 1018.500 821 1053.225 821 L 1087.950 821 1087.278 824.250 C 1086.908 826.038, 1086.625 831.550, 1086.648 836.500 C 1086.671 841.450, 1086.682 850.225, 1086.673 856 C 1086.665 861.775, 1086.652 870.325, 1086.645 875 C 1086.639 879.675, 1086.961 885.188, 1087.362 887.250 L 1088.091 891 1105.577 891 C 1121.293 891, 1123.135 890.823, 1123.773 889.250 C 1124.483 887.500, 1124.774 866.050, 1124.191 858.500 C 1124.021 856.300, 1124.160 849.100, 1124.501 842.500 C 1124.841 835.900, 1124.745 828.475, 1124.287 826 L 1123.454 821.500 1116.977 821 L 1110.500 820.500 1111 816 C 1111.275 813.525, 1111.455 807.675, 1111.400 803 C 1111.298 794.276, 1111.291 784.410, 1111.373 766 C 1111.398 760.225, 1111.091 754.263, 1110.691 752.750 C 1110.037 750.284, 1109.514 750, 1105.617 750 L 1101.273 750 1102.246 744.750 C 1103.269 739.236, 1102.775 718.062, 1101.579 716.127 C 1101.179 715.480, 1098.146 715, 1094.460 715 L 1088.038 715 1088.769 710.250 C 1089.689 704.274, 1089.644 686.385, 1088.701 682.807 C 1088.090 680.491, 1087.398 680.072, 1083.745 679.807 C 1079.509 679.501, 1079.501 679.493, 1080 676 C 1080.774 670.580, 1080.580 649.825, 1079.726 646.750 L 1078.962 644 1052.542 644 L 1026.123 644 1025.434 648.592 M 1387.225 645.750 C 1386.266 648.107, 1386.302 673.792, 1387.269 677.250 L 1388.038 680 1405.474 680 L 1422.909 680 1423.678 676.250 C 1424.693 671.293, 1424.711 652.494, 1423.705 647.750 L 1422.909 644 1405.423 644 C 1389.708 644, 1387.865 644.177, 1387.225 645.750 M 1040.775 726.867 C 1041.044 733.394, 1040.947 741.269, 1040.560 744.367 L 1039.856 750 1035.317 750 L 1030.777 750 1031.430 753.481 C 1031.790 755.395, 1032.083 761.704, 1032.083 767.500 C 1032.083 773.296, 1031.790 779.605, 1031.430 781.519 L 1030.777 785 1052.730 785 L 1074.683 785 1073.901 780.250 C 1073.471 777.638, 1073.119 771.900, 1073.119 767.500 C 1073.119 763.100, 1073.471 757.362, 1073.901 754.750 L 1074.683 750 1070.361 750 C 1066.493 750, 1065.959 749.710, 1065.289 747.250 C 1064.317 743.681, 1064.317 721.319, 1065.289 717.750 L 1066.038 715 1053.162 715 L 1040.286 715 1040.775 726.867 M 1157.646 720.750 C 1156.927 728.261, 1156.925 877.762, 1157.644 885.250 L 1158.196 891 1176.053 891 L 1193.909 891 1194.487 887.750 C 1195.110 884.248, 1195.308 875.850, 1195.244 855.750 C 1195.222 848.737, 1195.203 840.750, 1195.203 838 C 1195.203 835.250, 1195.203 827.375, 1195.203 820.500 C 1195.203 813.625, 1195.270 805.862, 1195.352 803.250 C 1195.433 800.638, 1195.179 795.462, 1194.788 791.750 L 1194.075 785 1200.519 785 C 1206.699 785, 1206.992 784.888, 1207.711 782.250 C 1208.123 780.737, 1208.460 774.100, 1208.460 767.500 C 1208.460 760.900, 1208.123 754.263, 1207.711 752.750 C 1206.969 750.027, 1206.878 750, 1198.550 750 L 1190.139 750 1190.708 739.208 C 1191.021 733.273, 1190.954 725.398, 1190.559 721.708 L 1189.841 715 1174.019 715 L 1158.196 715 1157.646 720.750 M 1206.327 717.750 C 1205.352 721.525, 1205.333 741.650, 1206.301 746.250 L 1207.091 750 1235.295 750 L 1263.500 750 1263.261 816.250 C 1263.130 852.687, 1263.270 884.413, 1263.573 886.750 L 1264.123 891 1281.967 891 L 1299.812 891 1300.373 886.250 C 1300.681 883.638, 1300.933 854.050, 1300.933 820.500 C 1300.933 786.950, 1300.681 757.362, 1300.373 754.750 L 1299.812 750 1289.049 750 L 1278.286 750 1278.775 738.133 C 1279.044 731.606, 1278.947 723.731, 1278.560 720.633 L 1277.856 715 1242.447 715 L 1207.038 715 1206.327 717.750 M 1360.625 718.125 C 1360.281 719.844, 1360 726.313, 1360 732.500 C 1360 738.688, 1360.281 745.156, 1360.625 746.875 L 1361.250 750 1374.488 750 L 1387.727 750 1386.754 755.250 C 1386.207 758.196, 1386.075 765.547, 1386.452 772 C 1386.822 778.325, 1386.989 785.525, 1386.823 788 C 1386.432 793.851, 1386.462 812.238, 1386.871 818 C 1387.047 820.475, 1386.882 827.450, 1386.504 833.500 C 1386.126 839.550, 1386.240 847.087, 1386.757 850.250 L 1387.697 856 1369.979 856 L 1352.262 856 1351.642 859.750 C 1351.301 861.813, 1351.022 868, 1351.022 873.500 C 1351.022 879, 1351.301 885.188, 1351.642 887.250 L 1352.262 891 1405.162 891 C 1454.603 891, 1458.110 890.886, 1458.781 889.250 C 1459.717 886.971, 1459.717 860.029, 1458.781 857.750 C 1458.136 856.177, 1456.290 856, 1440.578 856 L 1423.094 856 1423.797 850.750 C 1424.184 847.862, 1424.446 842.013, 1424.379 837.750 C 1424.313 833.487, 1424.260 825.725, 1424.261 820.500 C 1424.262 815.275, 1424.258 807.063, 1424.250 802.250 C 1424.243 797.438, 1424.247 789.450, 1424.258 784.500 C 1424.270 779.550, 1424.280 771.788, 1424.280 767.250 C 1424.281 762.712, 1424.298 754.837, 1424.320 749.750 C 1424.420 725.782, 1424.306 720.305, 1423.659 717.750 L 1422.962 715 1392.106 715 L 1361.250 715 1360.625 718.125 M 1510.362 718.750 C 1509.961 720.813, 1509.633 727, 1509.633 732.500 C 1509.633 738, 1509.961 744.188, 1510.362 746.250 L 1511.091 750 1523.837 750 L 1536.583 750 1536.572 764.750 C 1536.566 772.862, 1536.580 782.087, 1536.603 785.250 C 1536.659 792.881, 1536.657 813.549, 1536.599 820.750 C 1536.574 823.913, 1536.578 833.138, 1536.608 841.250 L 1536.663 856 1523.877 856 L 1511.091 856 1510.362 859.750 C 1509.420 864.596, 1509.420 882.404, 1510.362 887.250 L 1511.091 891 1555.077 891 C 1596.028 891, 1599.112 890.879, 1599.781 889.250 C 1600.717 886.971, 1600.717 860.029, 1599.781 857.750 C 1599.149 856.210, 1597.503 856, 1586.051 856 L 1573.038 856 1573.724 851.250 C 1574.101 848.638, 1574.378 843.350, 1574.340 839.500 C 1574.252 830.505, 1574.252 810.495, 1574.340 801.500 C 1574.378 797.650, 1574.101 792.362, 1573.724 789.750 L 1573.038 785 1579.500 785 C 1585.699 785, 1585.993 784.888, 1586.718 782.250 C 1587.686 778.732, 1587.728 757.521, 1586.775 753.250 L 1586.050 750 1601.544 750 L 1617.038 750 1616.289 752.750 C 1615.317 756.319, 1615.317 778.681, 1616.289 782.250 L 1617.038 785 1634.460 785 C 1645.208 785, 1652.123 784.610, 1652.511 783.981 C 1653.607 782.208, 1654.201 761.731, 1653.322 756 L 1652.479 750.500 1645.735 750.204 L 1638.991 749.908 1639.746 745.704 C 1640.692 740.432, 1640.650 721.426, 1639.684 717.750 L 1638.962 715 1605.950 715 C 1575.449 715, 1572.883 715.133, 1572.220 716.750 C 1571.259 719.097, 1571.299 743.780, 1572.269 747.250 L 1573.038 750 1564.170 750 L 1555.303 750 1556.243 744.250 C 1557.229 738.220, 1556.743 718.012, 1555.566 716.107 C 1555.100 715.352, 1547.919 715, 1532.986 715 L 1511.091 715 1510.362 718.750" stroke="none" fill="#060606" fill-rule="evenodd"/><path d="M 0 750 L 0 1500.001 1000.250 1499.750 L 2000.500 1499.500 2000.751 749.750 L 2001.001 0 1000.501 0 L 0 0 0 750 M 0.497 750.500 C 0.497 1163, 0.611 1331.600, 0.750 1125.168 C 0.889 918.735, 0.889 581.235, 0.750 375.168 C 0.611 169.100, 0.497 338, 0.497 750.500 M 343 750 L 343 1241 833.500 1241 L 1324 1241 1324 1145 L 1324 1049 1316 1049 L 1308 1049 1308 1137 L 1308 1225 833.500 1225 L 359 1225 359 750 L 359 275 833.500 275 L 1308 275 1308 363 L 1308 451 1316 451 L 1324 451 1324 355 L 1324 259 833.500 259 L 343 259 343 750 M 1025.434 648.592 C 1025.055 651.118, 1024.950 659.218, 1025.200 666.592 L 1025.655 680 1021.399 680 L 1017.144 680 1016.433 685.687 C 1016.043 688.814, 1015.968 696.689, 1016.267 703.187 L 1016.811 715 1010.467 715 L 1004.123 715 1003.444 719.526 C 1003.071 722.015, 1002.947 729.890, 1003.169 737.026 L 1003.574 750 999.359 750 L 995.144 750 994.558 755.250 C 994.236 758.138, 994.091 774.113, 994.236 790.750 L 994.500 821 988.358 821 C 982.599 821, 982.177 821.160, 981.573 823.566 C 981.218 824.978, 981.012 831.728, 981.113 838.566 C 981.351 854.593, 981.350 857.072, 981.105 871.727 C 980.993 878.452, 981.198 885.539, 981.562 887.477 L 982.223 891 1000.039 891 L 1017.856 891 1018.438 885.750 C 1018.757 882.862, 1018.902 867.112, 1018.760 850.750 L 1018.500 821 1053.225 821 L 1087.950 821 1087.278 824.250 C 1086.908 826.038, 1086.625 831.550, 1086.648 836.500 C 1086.671 841.450, 1086.682 850.225, 1086.673 856 C 1086.665 861.775, 1086.652 870.325, 1086.645 875 C 1086.639 879.675, 1086.961 885.188, 1087.362 887.250 L 1088.091 891 1105.577 891 C 1121.293 891, 1123.135 890.823, 1123.773 889.250 C 1124.483 887.500, 1124.774 866.050, 1124.191 858.500 C 1124.021 856.300, 1124.160 849.100, 1124.501 842.500 C 1124.841 835.900, 1124.745 828.475, 1124.287 826 L 1123.454 821.500 1116.977 821 L 1110.500 820.500 1111 816 C 1111.275 813.525, 1111.455 807.675, 1111.400 803 C 1111.298 794.276, 1111.291 784.410, 1111.373 766 C 1111.398 760.225, 1111.091 754.263, 1110.691 752.750 C 1110.037 750.284, 1109.514 750, 1105.617 750 L 1101.273 750 1102.246 744.750 C 1103.269 739.236, 1102.775 718.062, 1101.579 716.127 C 1101.179 715.480, 1098.146 715, 1094.460 715 L 1088.038 715 1088.769 710.250 C 1089.689 704.274, 1089.644 686.385, 1088.701 682.807 C 1088.090 680.491, 1087.398 680.072, 1083.745 679.807 C 1079.509 679.501, 1079.501 679.493, 1080 676 C 1080.774 670.580, 1080.580 649.825, 1079.726 646.750 L 1078.962 644 1052.542 644 L 1026.123 644 1025.434 648.592 M 1387.225 645.750 C 1386.266 648.107, 1386.302 673.792, 1387.269 677.250 L 1388.038 680 1405.474 680 L 1422.909 680 1423.678 676.250 C 1424.693 671.293, 1424.711 652.494, 1423.705 647.750 L 1422.909 644 1405.423 644 C 1389.708 644, 1387.865 644.177, 1387.225 645.750 M 1040.775 726.867 C 1041.044 733.394, 1040.947 741.269, 1040.560 744.367 L 1039.856 750 1035.317 750 L 1030.777 750 1031.430 753.481 C 1031.790 755.395, 1032.083 761.704, 1032.083 767.500 C 1032.083 773.296, 1031.790 779.605, 1031.430 781.519 L 1030.777 785 1052.730 785 L 1074.683 785 1073.901 780.250 C 1073.471 777.638, 1073.119 771.900, 1073.119 767.500 C 1073.119 763.100, 1073.471 757.362, 1073.901 754.750 L 1074.683 750 1070.361 750 C 1066.493 750, 1065.959 749.710, 1065.289 747.250 C 1064.317 743.681, 1064.317 721.319, 1065.289 717.750 L 1066.038 715 1053.162 715 L 1040.286 715 1040.775 726.867 M 1157.646 720.750 C 1156.927 728.261, 1156.925 877.762, 1157.644 885.250 L 1158.196 891 1176.053 891 L 1193.909 891 1194.487 887.750 C 1195.110 884.248, 1195.308 875.850, 1195.244 855.750 C 1195.222 848.737, 1195.203 840.750, 1195.203 838 C 1195.203 835.250, 1195.203 827.375, 1195.203 820.500 C 1195.203 813.625, 1195.270 805.862, 1195.352 803.250 C 1195.433 800.638, 1195.179 795.462, 1194.788 791.750 L 1194.075 785 1200.519 785 C 1206.699 785, 1206.992 784.888, 1207.711 782.250 C 1208.123 780.737, 1208.460 774.100, 1208.460 767.500 C 1208.460 760.900, 1208.123 754.263, 1207.711 752.750 C 1206.969 750.027, 1206.878 750, 1198.550 750 L 1190.139 750 1190.708 739.208 C 1191.021 733.273, 1190.954 725.398, 1190.559 721.708 L 1189.841 715 1174.019 715 L 1158.196 715 1157.646 720.750 M 1206.327 717.750 C 1205.352 721.525, 1205.333 741.650, 1206.301 746.250 L 1207.091 750 1235.295 750 L 1263.500 750 1263.261 816.250 C 1263.130 852.687, 1263.270 884.413, 1263.573 886.750 L 1264.123 891 1281.967 891 L 1299.812 891 1300.373 886.250 C 1300.681 883.638, 1300.933 854.050, 1300.933 820.500 C 1300.933 786.950, 1300.681 757.362, 1300.373 754.750 L 1299.812 750 1289.049 750 L 1278.286 750 1278.775 738.133 C 1279.044 731.606, 1278.947 723.731, 1278.560 720.633 L 1277.856 715 1242.447 715 L 1207.038 715 1206.327 717.750 M 1360.625 718.125 C 1360.281 719.844, 1360 726.313, 1360 732.500 C 1360 738.688, 1360.281 745.156, 1360.625 746.875 L 1361.250 750 1374.488 750 L 1387.727 750 1386.754 755.250 C 1386.207 758.196, 1386.075 765.547, 1386.452 772 C 1386.822 778.325, 1386.989 785.525, 1386.823 788 C 1386.432 793.851, 1386.462 812.238, 1386.871 818 C 1387.047 820.475, 1386.882 827.450, 1386.504 833.500 C 1386.126 839.550, 1386.240 847.087, 1386.757 850.250 L 1387.697 856 1369.979 856 L 1352.262 856 1351.642 859.750 C 1351.301 861.813, 1351.022 868, 1351.022 873.500 C 1351.022 879, 1351.301 885.188, 1351.642 887.250 L 1352.262 891 1405.162 891 C 1454.603 891, 1458.110 890.886, 1458.781 889.250 C 1459.717 886.971, 1459.717 860.029, 1458.781 857.750 C 1458.136 856.177, 1456.290 856, 1440.578 856 L 1423.094 856 1423.797 850.750 C 1424.184 847.862, 1424.446 842.013, 1424.379 837.750 C 1424.313 833.487, 1424.260 825.725, 1424.261 820.500 C 1424.262 815.275, 1424.258 807.063, 1424.250 802.250 C 1424.243 797.438, 1424.247 789.450, 1424.258 784.500 C 1424.270 779.550, 1424.280 771.788, 1424.280 767.250 C 1424.281 762.712, 1424.298 754.837, 1424.320 749.750 C 1424.420 725.782, 1424.306 720.305, 1423.659 717.750 L 1422.962 715 1392.106 715 L 1361.250 715 1360.625 718.125 M 1510.362 718.750 C 1509.961 720.813, 1509.633 727, 1509.633 732.500 C 1509.633 738, 1509.961 744.188, 1510.362 746.250 L 1511.091 750 1523.837 750 L 1536.583 750 1536.572 764.750 C 1536.566 772.862, 1536.580 782.087, 1536.603 785.250 C 1536.659 792.881, 1536.657 813.549, 1536.599 820.750 C 1536.574 823.913, 1536.578 833.138, 1536.608 841.250 L 1536.663 856 1523.877 856 L 1511.091 856 1510.362 859.750 C 1509.420 864.596, 1509.420 882.404, 1510.362 887.250 L 1511.091 891 1555.077 891 C 1596.028 891, 1599.112 890.879, 1599.781 889.250 C 1600.717 886.971, 1600.717 860.029, 1599.781 857.750 C 1599.149 856.210, 1597.503 856, 1586.051 856 L 1573.038 856 1573.724 851.250 C 1574.101 848.638, 1574.378 843.350, 1574.340 839.500 C 1574.252 830.505, 1574.252 810.495, 1574.340 801.500 C 1574.378 797.650, 1574.101 792.362, 1573.724 789.750 L 1573.038 785 1579.500 785 C 1585.699 785, 1585.993 784.888, 1586.718 782.250 C 1587.686 778.732, 1587.728 757.521, 1586.775 753.250 L 1586.050 750 1601.544 750 L 1617.038 750 1616.289 752.750 C 1615.317 756.319, 1615.317 778.681, 1616.289 782.250 L 1617.038 785 1634.460 785 C 1645.208 785, 1652.123 784.610, 1652.511 783.981 C 1653.607 782.208, 1654.201 761.731, 1653.322 756 L 1652.479 750.500 1645.735 750.204 L 1638.991 749.908 1639.746 745.704 C 1640.692 740.432, 1640.650 721.426, 1639.684 717.750 L 1638.962 715 1605.950 715 C 1575.449 715, 1572.883 715.133, 1572.220 716.750 C 1571.259 719.097, 1571.299 743.780, 1572.269 747.250 L 1573.038 750 1564.170 750 L 1555.303 750 1556.243 744.250 C 1557.229 738.220, 1556.743 718.012, 1555.566 716.107 C 1555.100 715.352, 1547.919 715, 1532.986 715 L 1511.091 715 1510.362 718.750" stroke="none" fill="#fbfbfb" fill-rule="evenodd"/></svg>