 <svg  version="1.0" xmlns="http://www.w3.org/2000/svg"  width="300.000000pt" height="225.000000pt" viewBox="0 0 300.000000 225.000000"  preserveAspectRatio="xMidYMid meet">  <g transform="translate(0.000000,225.000000) scale(0.100000,-0.100000)" fill="#ffffff" stroke="none"> <path d="M510 1125 l0 -735 740 0 740 0 0 145 c0 122 -2 145 -15 145 -13 0 -15 -22 -15 -135 l0 -135 -710 0 -710 0 0 715 0 715 710 0 710 0 0 -135 c0 -113 2 -135 15 -135 13 0 15 23 15 145 l0 145 -740 0 -740 0 0 -735z"/> <path d="M1540 1258 c0 -16 -5 -28 -11 -28 -7 0 -9 -10 -7 -24 3 -16 0 -27 -10 -31 -8 -3 -12 -13 -9 -25 3 -11 1 -23 -4 -26 -5 -3 -9 -27 -9 -55 0 -27 -4 -49 -10 -49 -5 0 -10 -25 -10 -55 0 -55 0 -55 31 -55 l31 0 -4 55 -3 55 53 0 52 0 0 -55 c0 -54 0 -55 29 -55 29 0 30 1 30 55 0 36 -5 55 -12 55 -8 0 -11 16 -9 50 3 32 0 50 -7 50 -6 0 -11 14 -11 30 0 17 -4 30 -9 30 -5 0 -13 24 -16 53 l-7 52 -39 0 c-36 0 -39 -2 -39 -27z m64 -115 c11 -68 9 -73 -27 -73 l-34 0 10 55 c8 41 15 55 27 55 12 0 19 -11 24 -37z"/> <path d="M2080 1258 c0 -25 4 -28 31 -28 27 0 30 3 27 27 -2 21 -9 27 -30 28 -24 1 -28 -3 -28 -27z"/> <path d="M1740 1175 c-1 -3 -1 -62 -2 -132 l0 -128 26 -3 26 -3 0 80 c0 47 4 81 10 81 6 0 10 11 10 25 0 16 -6 25 -16 25 -12 0 -14 7 -9 30 6 27 4 30 -19 30 -14 0 -26 -2 -26 -5z"/> <path d="M1810 1155 c0 -23 4 -25 43 -25 l43 0 -1 -107 0 -108 28 -3 27 -3 0 110 c0 94 -2 110 -15 105 -11 -5 -15 1 -15 25 0 31 0 31 -55 31 -52 0 -55 -1 -55 -25z"/> <path d="M2040 1149 c0 -26 3 -29 20 -24 19 6 20 2 20 -78 l0 -84 -25 5 c-22 4 -25 1 -25 -27 l0 -31 80 0 80 0 0 31 c0 27 -3 30 -27 27 l-27 -3 1 108 2 107 -50 0 c-48 0 -49 -1 -49 -31z"/> <path d="M2262 1153 c2 -22 8 -27 23 -25 19 2 20 -3 20 -80 0 -76 -2 -83 -20 -83 -15 0 -20 -7 -20 -25 0 -24 3 -25 68 -28 l67 -3 0 32 c0 26 -3 31 -20 26 -18 -5 -20 0 -20 49 0 30 5 54 10 54 6 0 10 14 10 30 0 25 4 30 25 30 22 0 24 -3 19 -30 -6 -28 -5 -30 25 -30 28 0 31 3 31 31 0 17 -4 28 -10 24 -6 -4 -10 7 -10 24 0 30 -1 31 -50 31 -49 0 -50 -1 -50 -30 0 -20 -5 -30 -15 -30 -10 0 -15 10 -15 30 0 28 -3 30 -36 30 -33 0 -35 -2 -32 -27z"/> </g> </svg> 